<?xml version="1.0" encoding="utf-8"?>
<!-- Generator: Adobe Illustrator 21.1.0, SVG Export Plug-In . SVG Version: 6.00 Build 0)  -->
<svg version="1.1" id="Layer_1" xmlns="http://www.w3.org/2000/svg" xmlns:xlink="http://www.w3.org/1999/xlink" x="0px" y="0px"
	 viewBox="0 0 325 325" style="enable-background:new 0 0 325 325;" xml:space="preserve">
<g transform="translate(0.000000,325.000000) scale(0.100000,-0.100000)">
	<path d="M1556,2675c-130-45-162-227-53-309c41-30,72-40,121-37c145,8,218,170,129,289C1708,2677,1630,2700,1556,2675z M1675,2586
		c56-37,49-137-12-165c-55-25-113-7-136,42c-26,54-7,109,46,132C1609,2611,1642,2608,1675,2586z"/>
	<path d="M1155,2648c-2-7-16-58-31-113c-14-55-29-103-33-108c-4-4-42,34-86,83c-79,91-101,104-99,59c9-184,21-319,28-327
		c3-3,20-1,38,4c36,10,36,15,22,129l-5,40l55-60c31-33,56-63,56-67c0-5,8-8,18-8c15,0,22,16,37,80c10,45,22,83,26,85
		c3,3,12-10,19-28c40-106,41-108,74-101c17,3,34,8,37,10c7,4-6,36-89,234C1184,2651,1165,2676,1155,2648z"/>
	<path d="M1946,2638c-10-40-7-46,27-53c17-4,35-9,38-11c4-2,1-32-6-66c-7-35-16-81-19-103c-4-22-9-55-12-72c-5-28-3-33,15-35
		c59-4,54-11,81,127l26,130l41-3c39-3,41-2,46,30c2,18,4,34,2,36c-3,3-144,31-196,38C1957,2661,1952,2658,1946,2638z"/>
	<path d="M2320,2408c-36-83-66-154-68-158c-1-3,14-14,33-23l36-17l29,65c32,72,23,70,117,28l42-18l-16-35c-9-19-23-47-30-63
		c-13-26-12-28,22-44c19-9,37-14,40-12c15,15,135,313,128,319c-4,3-20,11-34,17c-26,11-28,10-54-48c-14-32-30-59-35-59s-34,11-65,24
		l-55,25l21,53c12,29,23,58,25,63c4,9-48,35-67,35C2387,2560,2356,2492,2320,2408z"/>
	<path d="M613,2468c-13-6-23-16-23-22c0-10,123-262,143-293c6-10,14-10,38,2c16,9,29,20,29,25c0,20-145,300-155,299
		C640,2479,625,2474,613,2468z"/>
	<path d="M340,2292c-30-26-68-60-84-75l-30-28l26-25l25-25l30,25l29,25l65-76c35-42,76-89,90-104l27-29l26,21c34,26,33,37-7,79
		c-18,19-57,63-87,98l-54,63l28,25c25,24,26,28,13,47C415,2347,399,2343,340,2292z"/>
	<path d="M2847,2323c-2-4-13-49-23-100c-17-88-20-94-76-154l-58-63l27-29l28-28l49,52c64,65,79,74,146,88c30,7,72,16,94,22l38,10
		l-28,30c-21,22-34,28-53,24c-14-3-45-8-68-12l-43-6l9,29c23,71,21,90-8,118C2865,2319,2850,2328,2847,2323z"/>
	<path d="M667,1908c-18-13-47-109-66-213c-13-69-29-93-26-38c3,51-12,90-38,97c-21,6-30-1-76-60c-4-5-14-27-21-48l-12-38l-25,58
		c-28,67-28,66-18,117c7,33,5,37-14,37c-14,0-21-7-22-20c-1-11-2-39-3-62c-2-41-37-140-58-165c-5-7-8-18-5-25s20,21,40,62l35,75
		l11-44c15-54,9-76-18-62c-14,8-22,7-31-4s-6-17,13-30c30-19,61-9,86,29l18,28l7-26c9-36,35-47,74-31c17,8,32,21,32,30
		c0,8,2,15,4,15s12,3,20,6c11,4,15,2,11-7c-12-37-12-119,2-139c41-58,97,26,62,93c-9,16-9,22,0,25c6,2,18,10,25,17
		c12,12,15,10,20-15c7-39,37-40,65-2c19,25,20,26,21,6c0-40,53-41,66-2c6,19,6,19,18-3c17-34,36-34,74,1c18,16,40,30,48,30
		s17,0,21,0s8-6,9-13c0-6,2-19,2-28c3-28,31-31,57-5c22,22,24,22,28,5c3-11,12-19,20-19c21,0,41,28,68,93c17,42,25,54,29,41
		c4-10,0-35-7-57c-17-50-9-77,22-77c17,0,29,9,41,32l16,32l14-32c13-31,28-38,74-33c21,3,65,56,96,117c36,71,66,98,109,98
		c60,0,87-52,58-111c-24-51-92-65-134-27c-14,12-18,12-28,1c-22-28,40-53,117-48c13,0,39,16,58,35c29,29,34,41,34,79s-5,49-31,71
		c-22,19-42,26-72,26c-61,0-99-32-154-128c-25-46-53-86-60-89c-19-7-34,9-37,39c-2,19,5,29,29,42c40,22,60,56,51,90
		c-5,19-13,26-30,26c-31,0-68-44-92-110c-18-49-39-78-50-68c-2,3,0,17,6,32c15,39,12,82-6,100c-12,12-14,27-8,61c6,41,5,45-15,45
		c-23,0-23,1-25-85c-1-39-10-76-25-108c-24-49-45-63-36-24c19,91,24,142,14,151c-8,8-13,7-16-2c-4-10-8-10-18-2c-27,22-49,5-85-65
		c-21-42-42-71-53-73c-17-4-17-2-3,27c9,17,16,32,15,33c0,2,2,25,6,51c8,54-2,73-34,62c-29-9-47-95-30-141c5-14,1-30-11-48
		c-30-47-33-22-15,112c7,49,6,52-14,52c-13,0-21-6-21-17c-2-68-31-163-51-163c-9,0-6,32,11,119c5,29,10,55,10,57s-9,4-19,4
		c-21,0-22-3-41-86c-6-27-19-63-29-78c-17-25-20-26-25-10c-3,11-4,28-2,39s7,39,11,63s13,46,21,49s11,10,7,17c-4,6-6,35-5,64
		c3,41,0,52-12,52c-8,0-17-8-19-17c-3-10-5-4-6,13c-1,27-16,54-31,54C687,1920,676,1914,667,1908z M696,1848c-8-42-38-120-43-114
		c-4,4,25,125,33,138C697,1890,702,1878,696,1848z M715,1791c-4-17-10-31-14-31c-5,0-3,15,3,34C717,1836,725,1833,715,1791z
		 M965,1723c-9-66-30-84-21-20c3,27,8,53,12,58C968,1781,972,1767,965,1723z M695,1683c-9-69-57-126-72-87c-7,19,56,146,69,138
		C697,1731,699,1708,695,1683z M540,1674c0-16-6-39-14-49c-13-18-14-18-23,1c-13,23-8,70,8,90S540,1717,540,1674z M1106,1672
		c-6-48-29-92-47-92c-14,0-5,67,15,115C1095,1745,1114,1731,1106,1672z M1385,1708c-8-27-32-54-40-46c-9,8,23,68,36,68
		C1387,1730,1389,1721,1385,1708z M500,1576c-12-12-30,8-30,33c0,11,5,10,20-4C505,1592,507,1583,500,1576z M634,1505
		c7-27,1-45-14-45c-4,0-8,16-8,35C612,1536,625,1541,634,1505z"/>
	<path d="M2282,1838c-19-19-15-48,8-48c25,0,44,32,28,48C2303,1853,2297,1853,2282,1838z"/>
	<path d="M2776,1788c-2-18-4-53-4-78c0-24-5-46-11-48s-11-8-11-14c0-5-9-23-21-40c-25-34-58-35-70-1c-7,18-3,25,18,35
		c39,19,67,62,59,91c-15,62-84,24-112-63c-19-63-39-90-65-90c-20,0-39,28-32,48c3,6,11,12,18,12c23,0,66,61,63,89c-2,20-9,27-30,29
		c-38,5-69-32-92-108c-16-54-37-82-51-68c-3,3,3,36,14,75c19,74,14,103-16,103c-9,0-25-8-35-17c-15-13-19-14-16-3c2,8-5,14-16,15
		c-15,0-21-8-23-32c-7-59-39-138-57-141c-19-4-18,16,4,110c14,60,13,68-9,68c-15,0-22-11-30-51c-12-55-37-116-52-125c-9-5-5,36,6,76
		c2,8,7,33,10,56l5,40l-42-1c-24,0-48-4-54-8c-7-4-26-43-44-87s-38-80-46-80c-14,0-13,7,9,92c12,48,13,60,1,75c-12,17-15,17-43,1
		c-22-12-28-13-25-3c4,9-1,12-13,10c-10-2-20-4-23-4c-3-1-7-15-8-33c-3-39-33-108-55-126c-22-19-48-12-58,15c-7,19-3,25,25,38
		c58,28,75,115,22,115c-61,0-111-116-80-188c17-43,65-47,97-10l17,20v-21c0-14,6-21,20-21c11,0,20,6,21,13c3,56,27,133,50,159l20,23
		l-4-36c-3-20-7-41-10-46c-13-21-17-75-7-93c14-26,36-25,57,0c22,25,33,25,33,1c0-26,23-33,49-15c33,24,26-2-14-49
		c-39-45-45-81-16-97c31-16,59,16,73,84c6,33,21,69,33,82l22,24l11-25c12-27,40-33,60-13c9,9,12,9,12,0c0-7,9-12,19-12
		c15,0,21,10,27,43c4,23,8,44,9,47c13,55,19,71,31,81c25,20,28,1,11-55c-21-65-21-90-2-106s49-5,65,25l14,25l12-28
		c20-48,67-47,105,1l17,20l7-22c4-12,16-26,28-30c38-15,72,13,108,86c37,74,52,65,25-14c-22-64-20-87,9-121c29-35,76-45,121-27
		c61,25,78,77,48,142c-15,31-18,33-32,19c-13-12-13-20-4-41c17-37,15-62-8-85c-29-29-76-26-97,6c-17,26-16,39,13,151
		c4,14-1,34-12,50c-10,16-18,30-17,33c11,41,9,69-4,74C2781,1823,2781,1823,2776,1788z M1870,1725c0-14-25-55-36-59
		c-19-7-18,14,2,42C1849,1727,1870,1738,1870,1725z M2580,1725c0-14-25-55-36-59c-19-7-18,14,2,42C2559,1727,2580,1738,2580,1725z
		 M2710,1725c0-14-25-55-36-59c-17-7-18,5-2,39C2681,1726,2710,1741,2710,1725z M2167,1676c-8-53-26-96-42-96s-16,26,1,88
		c10,35,20,52,31,52C2170,1720,2172,1712,2167,1676z M2132,1455c-7-23-21-35-23-17c-1,18,10,42,19,42C2134,1480,2135,1470,2132,1455
		z"/>
	<path d="M488,1318c-8-13-50-79-93-147c-81-129-80-125-31-153c21-11,37,4,73,70c10,17,21,32,25,32c5,0,33-16,63-36l54-36l-34-54
		c-19-30-35-58-35-62s14-15,32-25c25-14,33-15,40-5c5,7,27,42,49,78s60,96,84,135l43,70l-26,17c-15,10-32,18-37,18c-6,0-25-25-43-55
		l-33-54l-58,37l-59,37l34,60l33,61l-28,17C505,1344,505,1344,488,1318z"/>
	<path d="M2644,1287c-42-29-78-57-81-64c-4-11,182-283,193-283c3,0,19,9,35,21l29,20l-40,57c-54,75-38,86,58,38l68-34l32,20
		c18,11,32,24,32,29s-30,22-66,39c-59,26-65,32-58,52c25,80-14,145-91,152C2726,1337,2706,1328,2644,1287z M2768,1248
		c21-21,13-45-25-74l-36-27l-24,29l-24,29l33,28C2727,1262,2749,1267,2768,1248z"/>
	<path d="M2332,1135c-51-19-97-37-101-40c-9-5,94-303,109-319c8-8,183,47,203,64c6,5-9,70-17,70c0,0-31-11-67-24l-67-24l-11,24
		c-17,37-15,39,45,58c45,14,54,21,49,34c-4,9-10,25-12,35c-6,21-9,21-64,2c-51-18-72-13-67,17c2,16,18,28,62,45c32,12,61,24,63,27
		c4,4-25,67-30,65C2426,1169,2383,1154,2332,1135z"/>
	<path d="M940,1088c-73-27-122-96-122-173c0-172,227-242,324-100c62,90,31,212-66,262C1040,1096,974,1101,940,1088z M1051,1000
		c25-14,50-69,44-98c-15-81-104-110-165-54C841,927,944,1057,1051,1000z"/>
	<path d="M2012,1042c-6-2-31-37-54-78c-41-73-43-74-50-47c-4,15-9,44-11,63c-4,37-20,46-62,36c-25-6-24-4-10-91c3-16,8-50,11-75
		s7-56,9-69c3-13,7-44,11-68c6-38,9-43,33-43c37,0,51,12,47,40c-3,14-7,48-11,75l-6,50l68-70c65-67,70-70,107-65c22,3,41,10,43,15
		c1,6-31,43-72,84l-75,74l32,56c17,31,37,65,45,76c21,31,16,46-16,43C2036,1047,2018,1044,2012,1042z"/>
	<path d="M1434,1004c-52-17-100-74-112-131c-26-118,68-227,185-217c109,10,184,112,161,218S1538,1039,1434,1004z M1526,931
		c21-2,55-39,64-72c7-24,5-40-7-66c-18-39-40-53-86-55c-106-4-142,138-46,184c17,9,39,14,48,13C1508,933,1520,931,1526,931z"/>
</g>
</svg>
